<?xml version="1.0" encoding="utf-8"?>
<!-- Generator: Adobe Illustrator 27.2.0, SVG Export Plug-In . SVG Version: 6.00 Build 0)  -->
<svg version="1.1" id="Layer_1" xmlns="http://www.w3.org/2000/svg" xmlns:xlink="http://www.w3.org/1999/xlink" x="0px" y="0px"
	 viewBox="0 0 200 33.3" style="enable-background:new 0 0 200 33.3;" xml:space="preserve">
<g id="mxks7R_00000082338885636898822320000011899564258769626765_">
	<g>
		<path d="M61.6,27.9c0-1.3,0-2.6,0.4-3.9c0.5-1.4,0.6-2.9,0.7-4.3c0.1-1.2,0.4-2.3,0.8-3.4c0.4-1.5,0.7-3,0.5-4.5
			c0-0.3-0.1-0.7-0.2-1c-0.4-0.9-1.4-1.2-2.1-0.5c-0.3,0.3-0.6,0.6-0.8,1c-0.4,0.6-0.8,1.2-1.1,1.8c-0.3,0.7-0.5,1.4-0.8,2.2
			c-0.1,0.4-0.3,0.7-0.7,0.8c-0.6,0.1-0.9,0.5-1.1,0.9c-0.5,1.1-1,2.2-1.5,3.3c-0.1,0.2-0.1,0.5,0,0.6c0.1,0.3,0.5,0.1,0.7,0.1
			c0.7-0.1,1.1-0.6,1.5-1.1c0.2-0.3,0.4-0.6,0.7-0.7c0.2-0.1,0.6-0.2,0.7-0.1c0.2,0.2,0.3,0.5,0.3,0.8c0,0.2-0.1,0.5-0.3,0.7
			c-0.8,1.1-1.7,2-3.2,2.2c-0.3,0-0.6,0.1-0.9,0.1c-0.8-0.1-1.1,0.1-1.4,0.7c-0.4,0.9-0.8,1.8-1.2,2.7c-0.2,0.4-0.3,0.8-0.5,1.2
			c-0.6,1.3-1.2,2.7-1.8,4c-0.2,0.4-0.4,0.8-0.7,1.2c-0.2,0.3-0.4,0.7-0.8,0.5c-0.4-0.2-0.7-0.8-0.5-1.2c0.1-0.2,0.1-0.4,0.2-0.5
			c0.6-0.7,0.9-1.5,1.2-2.3c0.5-1.3,0.9-2.6,1.1-3.9c0.1-0.6,0.1-1.3,0.1-2c0-0.7-0.2-0.9-0.8-1.1c-0.7-0.2-1.4-0.4-2-0.8
			c-0.3-0.2-0.7-0.1-1,0.2c-0.5,0.6-0.9,1.2-1.4,1.8c-1,1.4-1.9,2.7-2.9,4.1c-0.1,0.1-0.2,0.2-0.3,0.3c-0.7,0.6-0.9,1-0.4,2.1
			c0.1,0.3,0.3,0.6,0.4,0.9c0,0.2,0,0.5-0.1,0.7c-0.2,0.4-0.6,0.5-0.9,0.1c-0.3-0.3-0.5-0.7-0.7-1.1c-0.3-0.6-0.5-0.6-1.1-0.3
			c-0.7,0.4-1.4,0.7-2.1,1.1c-0.2,0.1-0.4,0.1-0.6,0.1C36,31,34.8,30.8,33.9,30c-0.6-0.5-1-1-1.3-1.7c-0.1-0.5,0-0.8,0.4-1
			c0.3-0.2,0.7,0,1,0.3c0.1,0.1,0.1,0.2,0.2,0.3c0.2,0.4,0.4,0.7,0.9,0.8c0.5,0.1,1,0.3,1.5,0.5c0.5,0.2,0.9,0.2,1.4-0.1
			c0.4-0.2,0.8-0.5,1.2-0.8c0.4-0.3,0.4-0.5,0.2-1c-0.3-0.5-0.6-1-0.8-1.5c-0.3-0.8-0.6-1.7-0.9-2.5c-0.1-0.4-0.3-0.8-0.5-1.1
			c-0.4-0.6-0.9-1.3-1.4-1.9c-0.6-0.7-0.9-0.8-1.8-0.4c-1.3,0.5-2.4,1.2-3.5,2.1c-0.5,0.4-0.9,0.9-1.2,1.4c-0.7,0.9-1.2,1.9-2,2.7
			c-0.9,1-1.9,2-3.3,2.4c-0.5,0.1-1,0.4-1.4,0.6c-0.7,0.3-1.3,0-1.9-0.3c-1.6-0.9-1.5-2.4-1.4-3.9c0-0.3,0.1-0.5,0.1-0.8
			c0-0.4-0.2-0.5-0.5-0.3c-0.3,0.2-0.5,0.3-0.7,0.6c-0.8,0.9-1.5,1.7-2.2,2.6c-1.3,1.5-2.6,2.9-4.1,4.2c-0.2,0.2-0.6,0.4-0.9,0.5
			c-0.9,0.3-1.9,0.7-2.8,1c-0.9,0.3-1.9,0.2-2.8,0.1c-0.8-0.1-1.6-0.4-2.4-0.7c-1.3-0.5-2.1-1.4-2.3-2.7c-0.2-1.2-0.4-2.4-0.5-3.7
			c0-0.7,0.1-1.5,0.4-2.2c0.5-1.4,0.9-2.9,1.6-4.3c0.5-1.2,1.2-2.2,1.9-3.3c0.9-1.5,2.1-2.6,3.3-3.8c1.2-1.3,2.6-2.2,3.9-3.3
			c0.3-0.3,0.8-0.5,1.2-0.6c0.6-0.2,1.2-0.5,1.5-1.2c0.1-0.3,0.4-0.4,0.6-0.3C15,7.5,15.5,7,16,6.8c1.4-0.5,2.6-1.3,4.1-1.6
			c0.2,0,0.4-0.2,0.5-0.3c0.5-0.5,0.8-0.5,1.4-0.2c0.1,0.1,0.3,0.2,0.4,0.3c0.3,0.4,0.6,0.5,1,0.2c0.1,0,0.2,0,0.2,0
			c0.6,0.3,1-0.1,1.5-0.3c1.1-0.5,2.2-1.1,3.4-1.3c0.4-0.1,0.8-0.1,1.2-0.2c0.5-0.2,1.1-0.3,1.6-0.6c1-0.6,2-1.3,3.1-1.7
			c1.3-0.6,2.5-1.2,4-1.1c0.8,0.1,1.7,0.1,2.4,0.6c0.5,0.3,1,0.5,1.5,0.7c1,0.4,1.6,1.1,1.8,2.1c0.2,0.9,0.5,1.8,0.6,2.8
			c0.1,0.9,0.1,1.8,0.1,2.6c0,0,0,0.1,0,0.1c0.3,1.3-0.3,2.4-0.9,3.4c-0.5,0.8-1,1.6-1.5,2.4c-0.6,0.9-1.5,1.4-2.3,2.1
			c-0.9,0.7-1.8,1.3-2.7,1.9c-0.7,0.4-0.7,1.1-0.2,1.6c0.9,0.9,1.4,1.9,1.9,3.1c0.4,0.9,0.8,1.8,1.2,2.6c0.1,0.2,0.2,0.3,0.3,0.5
			c0.3,0.3,0.6,0.4,0.9,0.1c0.6-0.5,1.2-1,1.6-1.7c0.3-0.6,0.8-1,1.2-1.6c0.3-0.4,0.5-0.7,0.7-1.1c0.4-0.6,0.7-1.1,1.1-1.7
			c0.3-0.4,0.2-0.8,0-1.2c-0.6-1.2-1.2-2.4-1.6-3.7c-0.4-1.5-0.3-3.1,1-4.2c0.4-0.4,0.9-0.5,1.4-0.4c0.6,0.2,0.9,0.7,1,1.3
			c0.1,0.2-0.1,0.3-0.4,0.3c-0.3,0-0.6,0.1-0.9,0.1c-0.6,0-0.8,0.5-0.9,0.9c-0.1,0.4-0.2,0.8-0.1,1.2c0.3,1.2,0.6,2.4,1.4,3.5
			c0.2,0.3,0.6,0.5,0.8,0.3c0.7-0.7,1.6-1.4,1.8-2.4c0.1-0.3,0-0.7-0.1-1.1c0-0.2-0.2-0.4-0.2-0.7c0-0.2,0-0.6,0.2-0.7
			c0.3-0.2,0.4,0.1,0.6,0.3c0.5,0.6,0.5,0.6,1,0c0.5-0.7,1-1.3,1.5-2c1-1.4,2.4-2.5,3.6-3.7c0.7-0.7,1.4-1.3,2.1-2
			c0.3-0.3,0.6-0.7,0.8-1.1c0.4-0.6,1-0.9,1.8-0.9c0.4,0,0.6,0.3,0.7,0.6c0,0.3,0,0.6,0,0.9c-0.1,0.6-0.2,1.3-0.2,1.9
			c0,0.5,0.2,0.6,0.6,0.5c1.2-0.2,2.7,0.7,3.1,1.8c0.4,1.3,0.4,2.6,0.1,4c-0.1,0.6-0.2,1.3-0.4,1.9c-0.1,0.7-0.3,1.4-0.5,2.1
			c-0.3,1.5-0.6,3.1-0.9,4.6c-0.1,0.8-0.2,1.6-0.4,2.4c-0.4,1.3-0.1,2.6-0.2,4c0,0.1,0,0.1,0,0.2c0.1,0.2,0.2,0.3,0.3,0.5
			c0.1-0.1,0.3-0.2,0.4-0.4c0.2-0.4,0.3-0.7,0.4-1.1c0.2-0.8,0.4-1.4,1-2c0.1-0.1,0.2-0.3,0.3-0.5c0.4-1.2,0.8-2.5,1.3-3.7
			c0.3-0.8,0.8-1.7,1.3-2.4c0.9-1.4,2-2.6,3-4c0.6-0.8,1.1-1.7,1.5-2.7c0.9-1.8,1.7-3.7,2.6-5.6c0.1-0.2,0.2-0.4,0.3-0.5
			c0.2-0.1,0.4-0.3,0.6-0.2c0.2,0.1,0.4,0.3,0.4,0.5c0,0.4,0,0.9-0.2,1.3c-0.3,1-0.6,1.9-0.8,2.8c-0.2,0.9-0.5,1.8-1,2.6
			c-0.3,0.5-0.4,1.1-0.4,1.8c0.1,0.5,0,1-0.1,1.5c-0.2,0.9-0.6,1.8-0.8,2.8c-0.3,1.3-0.5,2.7-0.7,4.1c-0.1,0.5-0.2,1.1-0.2,1.6
			c0,1,0,2,0,3c0,0.4,0,0.8,0.1,1.2c0,0.2,0.2,0.5,0.3,0.5c0.1,0.1,0.4-0.1,0.6-0.2c0.9-0.9,1.6-1.8,1.9-3.1c0.2-0.7,0.6-1.4,0.9-2
			c0.8-1.3,1.1-2.7,1.6-4c0.6-2,1.2-4.1,1.8-6.1c0.5-1.5,0.9-3.1,1.4-4.6c0.5-1.5,1.1-2.9,1.6-4.4c0.2-0.7,0.4-1.4,0.6-2.1
			C83,3.4,83.1,3.2,83.3,3c0.1-0.1,0.3-0.3,0.5-0.2c0.2,0,0.4,0.2,0.4,0.4c0,0.4,0,0.8-0.1,1.2c-0.4,1.4-0.8,2.9-1.3,4.3
			c-0.1,0.4-0.3,0.8-0.5,1.2c-0.8,1.4-0.6,2.7,0.4,4c0.7,0.9,1.5,1.7,2.5,2.1c1,0.4,1.9,0.7,3,0.3c0.7-0.2,1.4-0.2,2.2-0.3
			c0.1,0,0.2,0,0.3-0.1c0.8-0.4,1.7-0.6,2.5-0.7c0.5-0.1,0.9-0.4,1.2-0.8c1.1-1.3,2.3-2.5,3.4-3.8c0.9-1,1.7-2.2,2.5-3.2
			c1.2-1.5,2.5-3,4.1-4.2c0.4-0.3,0.7-0.6,1.3-0.4c0.2,0.1,0.4-0.1,0.6-0.1c0.8-0.2,1.1,0,1.2,0.6c0.1,0.5,0.1,1-0.1,1.5
			c-0.5,1.1-1,2.2-1.6,3.3c-0.2,0.4-0.5,0.8-0.8,1.1c-1,0.7-1.7,1.7-2.4,2.6c-0.4,0.5-0.8,0.9-1.4,1.1c-0.5,0.2-0.9,0.5-1.4,0.8
			c-1.2,0.7-2.3,1.5-3.6,2.1c-1.1,0.6-2.2,1.2-2.9,2.3c-0.4,0.6-1,1.1-1.4,1.7c-0.4,0.5-0.8,1.1-1.1,1.7c-0.4,0.8-1,1.4-1.6,2
			c-1,1-2,2-3,3c-0.2,0.2-0.3,0.5-0.3,0.7c0,0.1,0.4,0.2,0.6,0.3c0.8,0.2,1.7,0.5,2.5,0.7c0.3,0.1,0.6,0.1,0.9,0.1
			c1.6-0.2,3.1-0.4,4.7-0.6c0.9-0.1,1.9-0.2,2.8-0.6c1.1-0.4,2.1-1,2.9-1.9c0.3-0.4,0.6-0.7,0.9-1.1c0.2-0.3,0.6-0.5,0.9-0.3
			c0.2,0.1,0.3,0.6,0.3,0.8c-0.1,0.8-0.7,1.4-1.3,2c-1.5,1.4-3.3,2.2-5.3,2.6c-1.7,0.3-3.3,0.4-5,0.7c-1.4,0.2-2.6-0.1-3.8-0.4
			c-0.7-0.2-1.4-0.4-2.1-0.5c-0.3,0-0.6,0.1-0.9,0.2c-0.7,0.2-1.2,0.5-1.8,1c-1.3,1.1-2.9,1.7-4.6,1.6c-0.5,0-0.9-0.3-1.2-0.7
			c-0.5-0.7-0.5-2.3,0.2-2.7c0.1-0.1,0.3-0.2,0.4-0.2c0.7-0.2,1.5-0.5,2.2-0.7c0.1,0,0.2-0.1,0.3-0.1c0.9,0.1,1.9-0.1,2.8,0.2
			c0.4,0.1,0.7,0,1-0.3c0.7-0.6,1.3-1.2,2-1.9c0.7-0.7,1.3-1.3,2-2c0.3-0.3,0.6-0.6,0.9-0.9c0.7-0.9,1.5-1.7,2-2.7
			c0.2-0.4,0.5-0.8,0.8-1.1c0.2-0.2,0.3-0.4,0.4-0.7c0.1-0.3-0.1-0.5-0.4-0.4c-0.8,0.1-1.7,0.2-2.5,0.4c0,0-0.1,0-0.1,0
			c-1.4,0.6-2.6,0-3.9-0.4c-0.6-0.2-1.1-0.7-1.6-1.2c-0.5-0.5-0.9-1.1-1.4-1.7c-0.1-0.2-0.3-0.4-0.4-0.4c-0.2,0.1-0.4,0.3-0.5,0.5
			c-0.2,0.4-0.3,0.8-0.4,1.2c-0.2,0.6-0.4,1.1-0.6,1.7c-0.2,0.8-0.5,1.6-0.7,2.4c-0.4,1.3-0.9,2.7-1.2,4c-0.3,1-0.8,2-1.3,2.9
			c-0.3,0.6-0.4,1.3-0.7,1.9c-0.7,1.2-1.5,2.4-2.8,3.2c-0.7,0.5-1.5,0.4-1.8-0.5c-0.2-0.5-0.4-1.1-0.4-1.6c-0.1-0.8-0.2-1.7-0.1-2.5
			c0.1-1.1,0.2-2.3,0.3-3.4c0.2-1.9,0.6-3.7,1.1-5.6c0.1-0.6,0.3-1.2,0.4-1.8c0-0.1,0.1-0.2,0.1-0.4c0-0.1,0-0.2-0.1-0.4
			c-0.1,0.1-0.2,0.1-0.3,0.2c-0.2,0.2-0.4,0.5-0.6,0.7c-0.6,0.7-1.1,1.4-1.7,2.1c-1.2,1.6-2.1,3.3-2.9,5.1c-0.4,0.9-0.9,1.7-1.2,2.6
			c-0.2,0.5-0.4,1.1-0.5,1.6c-0.4,1.1-0.9,2.2-1.3,3.3c-0.1,0.2-0.2,0.3-0.3,0.5c-0.4,0.4-0.7,0.3-1.1-0.1c-0.7-0.8-1-1.8-1-2.8
			C61.6,28.6,61.6,28.2,61.6,27.9z M1.7,26.9c0,0.7,0.1,1.4,0.1,2c0,0.2,0,0.4,0.1,0.6c0.2,0.4,0.2,0.9,0.5,1.2
			c0.5,0.4,1.2,0.7,1.8,1.1c0.1,0,0.2,0,0.3,0c0.7,0,1.4,0,2.1,0c0.3,0,0.7,0,1-0.1c1.3-0.6,2.6-1.2,3.9-1.8
			c0.2-0.1,0.4-0.3,0.5-0.4c1.1-1.2,2.2-2.4,3.3-3.7c1.1-1.2,2.2-2.5,3.3-3.7c0.4-0.4,0.9-0.4,1.2,0c0.4,0.6,0.7,1.2,1,1.8
			c0,0.1,0.1,0.2,0.1,0.2c0,0.8-0.1,1.6-0.1,2.5c0,0.5,0,1,0.1,1.4c0,0.2,0.2,0.4,0.5,0.3c0.8-0.3,1.6-0.6,2.3-1
			c0.8-0.5,1.6-1.1,2.3-1.7c1.2-0.9,1.9-2.1,2.6-3.4c0.2-0.5,0.1-0.7-0.3-1c-0.2-0.1-0.4-0.3-0.4-0.4c-0.3-0.6-0.4-1.3-0.3-2
			c0.1-0.8,0.6-1.1,1.5-0.9c0.1,0,0.4,0,0.4-0.1c0.4-0.5,1-0.6,1.7-0.6c0.4,0,0.7-0.1,0.9-0.4c0.3-0.3,0.5-0.7,0.8-1.1
			c0.3-0.5,0.5-1,0.8-1.4c0.6-1,1.3-2,2-2.9c0.3-0.4,0.7-0.9,1.1-1.1c0.4-0.2,0.6-0.4,0.6-0.8c0.2-1,0.7-1.9,1.3-2.8
			c0.1-0.1,0.3-0.2,0.5-0.2c0.1,0,0.2,0.2,0.3,0.3c0.2,0.4,0.1,0.7-0.1,1C38.8,8,38.5,8.4,38.4,9c-0.1,0.6-0.4,1-1,1.2
			c-0.2,0.1-0.3,0.3-0.4,0.5c-0.2,1.1-0.8,2-1.5,2.8c-0.8,1-1.4,2.1-1.8,3.2c-0.2,0.5-0.1,0.8,0.4,1.1c0.6,0.3,1.2,0.5,1.8,0.1
			c0.2-0.1,0.5-0.3,0.7-0.4c0.8-0.5,1.5-1,2.3-1.4c0.6-0.3,1-0.7,1.3-1.2c0.1-0.2,0.2-0.3,0.3-0.5c0.6-0.8,1.2-1.6,1.8-2.5
			c0.9-1.3,1.2-2.7,1.1-4.2c-0.1-1.1-0.3-2.3-0.5-3.4c-0.1-0.6-0.5-1.1-1.2-1.4c-0.6-0.3-1.3-0.5-1.9-0.7c-1.2-0.5-2.4-0.3-3.5,0.1
			c-1.7,0.6-3.3,1.6-4.8,2.5c-0.8,0.5-1.7,0.8-2.6,0.9c-1.4,0.1-2.5,0.7-3.6,1.5C25,7.3,24.9,7.6,24.8,8c-0.1,0.8-0.2,1.6-0.4,2.4
			c-0.1,0.4-0.2,0.8-0.3,1.2c-0.2,0.8,0,0.9,0.8,0.8c0.2,0,0.4-0.1,0.6,0c0.4,0.1,0.7,0,1-0.3c0.2-0.2,0.4-0.4,0.6-0.6
			c0.2-0.1,0.4-0.1,0.6-0.1c0.1,0,0.2,0.4,0.1,0.5c-0.1,0.3-0.3,0.5-0.5,0.7c-0.3,0.4-0.7,0.7-1,1c-0.6,0.8-1,0.9-2,0.6
			c-0.8-0.3-1.6-0.5-2.5-0.2c-0.5,0.1-1.1,0.3-1.6,0.2c-0.6-0.1-1.2-0.5-1.8-0.8c-0.5-0.3-0.6-1-0.3-1.4c0.2-0.4,0.5-0.5,0.9-0.2
			c0.2,0.1,0.3,0.2,0.5,0.3c0.6,0.2,0.7,0.2,0.7-0.4c0-0.5,0-1,0.1-1.5c0.1-0.7,0.4-1.3,1-1.7c0.7-0.5,1.2-1.1,1.5-1.9
			c0.1-0.3-0.1-0.5-0.3-0.3c-0.4,0.3-0.8,0.3-1.2,0.4c-0.6,0.2-1.1,0.4-1.7,0.6c-1.4,0.5-2.8,0.9-4.2,1.5c-1.2,0.6-2.2,1.4-3.3,2
			c-0.1,0-0.1,0.1-0.2,0.2c-0.9,0.9-1.8,1.7-2.7,2.6c-0.9,0.9-1.8,1.7-2.6,2.6c-0.8,0.9-1.4,1.8-2.1,2.7c-0.4,0.5-0.6,1.1-0.9,1.6
			c-0.2,0.5-0.5,1-0.7,1.6C2.3,23.4,1.5,25.1,1.7,26.9z M53.1,21c0.3,0.1,0.6-0.1,0.8-0.4c0.2-0.3,0.3-0.5,0.5-0.8
			c1.1-1.8,1.6-3.9,2.9-5.7c0.9-1.2,1.4-2.7,1.9-4.1c0.3-0.8,0.5-1.6,0.8-2.5c0-0.2,0-0.4,0-0.5c-0.2,0.1-0.4,0.2-0.5,0.3
			c-0.2,0.2-0.4,0.4-0.6,0.6c-1.1,1-2.3,1.9-3.3,3c-1.3,1.4-2.4,2.9-3.6,4.3c-0.7,0.9-0.9,1.8-0.3,2.9c0.1,0.2,0.2,0.6,0.2,0.9
			c0.1,0.5,0.2,0.9,0.3,1.4C52.3,21,52.4,21,53.1,21z M98.8,12.3c0.2-0.1,0.3-0.1,0.4-0.2c0.6-0.3,1.2-0.7,1.8-1
			c0.6-0.3,1-0.7,1.4-1.3c0.2-0.4,0.5-0.7,0.8-1c1.5-1,2-2.5,2.8-4c0.1-0.1,0.1-0.3,0-0.4c-0.1-0.1-0.3-0.1-0.4,0
			c-0.5,0.2-1,0.4-1.5,0.6c-0.8,0.3-1.4,0.8-1.7,1.5c-0.7,1.4-1.6,2.7-2.6,4c-0.3,0.4-0.6,0.9-0.9,1.3
			C98.8,11.9,98.8,12.1,98.8,12.3z M50.1,20.3c0.3-0.1,0.7,0.1,0.7-0.3c0-0.5-0.1-1-0.3-1.5c-0.1-0.2-0.3-0.3-0.5-0.1
			c-0.3,0.3-0.5,0.5-0.8,0.8c-0.4,0.4-0.3,0.8,0.3,1C49.8,20.2,50,20.3,50.1,20.3z M78,30c0.2,0.1,0.4,0.2,0.5,0.2
			c0.7-0.2,1.3-0.5,2-0.8c0.1,0,0.1-0.2,0.1-0.3c0,0-0.1-0.1-0.2-0.1c-0.8-0.2-1.5,0.1-2.1,0.5C78.2,29.6,78.1,29.8,78,30z M28.8,20
			C28.9,20,28.9,20,28.8,20c0.1,0.2,0,0.4,0.1,0.6c0,0.3,0.2,0.3,0.4,0.1c0.3-0.4,0.6-0.7,0.7-1.2c0.2-0.3-0.1-0.8-0.5-0.9
			c-0.3-0.1-0.4,0.2-0.5,0.5C28.9,19.4,28.9,19.7,28.8,20z M21.9,10.8c0.1,0.2,0.2,0.4,0.4,0.6c0.1-0.2,0.3-0.3,0.4-0.5
			c0.2-0.5,0.3-1,0.4-1.4c0-0.1,0-0.2,0-0.3c-0.1,0-0.3,0-0.4,0.1C22.4,9.8,22.2,10.3,21.9,10.8z"/>
		<path d="M165.4,33.2c-1.3,0.1-2.6-0.4-3.8-0.8c-1.2-0.5-1.9-1.4-2.1-2.7c-0.2-1.2-0.3-2.4-0.4-3.6c-0.1-0.8,0.2-1.6,0.4-2.4
			c0.1-0.2,0.1-0.4,0.1-0.5c0-0.3-0.2-0.4-0.4-0.4c-0.5,0-0.9,0.1-1.4,0.1c-0.6,0-0.9,0.2-1.1,0.7c-0.4,0.9-0.8,1.9-1.3,2.8
			c-0.2,0.4-0.3,0.7-0.5,1.1c-0.6,1.3-1.2,2.7-1.8,4c-0.2,0.5-0.5,0.9-0.7,1.3c-0.2,0.3-0.4,0.6-0.8,0.4c-0.4-0.2-0.7-0.7-0.6-1.1
			c0.1-0.2,0.1-0.4,0.3-0.6c0.7-0.7,0.9-1.6,1.2-2.4c0.5-1.3,0.9-2.5,1.1-3.9c0.1-0.7,0.1-1.3,0.1-2c0-0.5-0.2-0.9-0.7-1
			c-0.8-0.2-1.5-0.4-2.2-0.9c-0.3-0.2-0.7-0.1-0.9,0.2c-0.4,0.5-0.8,1-1.2,1.5c-0.4,0.6-0.8,1.2-1.2,1.7c-0.9,1.3-1.9,2.7-3.2,3.7
			c-0.9,0.7-1.8,1.4-2.7,2.2c-0.1,0.1-0.3,0.2-0.5,0.3c-0.7,0.4-1.4,0.4-2.1,0.1c-0.7-0.3-1.4-0.5-2-0.8c-0.6-0.4-1.1-1-1.6-1.6
			c-0.2-0.2-0.2-0.5-0.2-0.8c0-0.2,0.2-0.4,0.4-0.4c0.1-0.1,0.3,0.1,0.5,0.1c0.1,0,0.1,0.1,0.1,0.1c0.8,1.4,2.3,1.4,3.6,1.8
			c0.3,0.1,0.7-0.1,1.1-0.3c1.3-0.7,2.4-1.7,3.5-2.8c1.4-1.4,2.5-3,3.5-4.7c0.3-0.4,0.5-0.8,0.8-1.1c0.3-0.5,0.3-0.7,0-1.2
			c-0.1-0.2-0.2-0.3-0.3-0.5c-0.3-0.5-0.5-0.5-0.9-0.1c-0.5,0.5-1.1,1-1.6,1.6c-0.1,0.1-0.3,0.2-0.4,0.3c-1,0.4-1.8,1.1-2.6,1.8
			c-0.7,0.6-1.7,0.7-2.6,0.6c-0.7-0.1-1.3-0.5-2-0.7c-0.4-0.2-0.9-0.2-1.3-0.4c-0.3-0.1-0.6-0.1-0.9-0.3c-0.4-0.2-0.9-0.5-1.3-0.7
			c-0.6-0.3-0.9-0.3-1.1,0.3c-0.3,0.8-0.7,1.6-1,2.5c-0.5,1.3-1.2,2.5-2,3.6c-0.5,0.7-1,1.3-1.5,2c-0.2,0.3-0.6,0.6-0.9,0.8
			c-0.6,0.4-1.2,0.8-1.7,1.3c-0.7,0.5-1.4,0.8-2.3,0.4c-0.3-0.1-0.5-0.4-0.6-0.7c-0.1-0.6-0.2-1.2-0.2-1.7c0-0.4,0.2-0.9,0.4-1.2
			c0.5-0.6,0.8-1.3,1.1-2.1c0.4-1.2,1-2.4,1.7-3.5c0.8-1.2,1.5-2.4,2.3-3.5c0.6-0.8,1.3-1.5,2-2.2c0.2-0.2,0.4-0.4,0.5-0.6
			c0.6-0.9,1.3-1.7,2.2-2.3c0.6-0.4,0.8-1.1,1-1.7c0.4-1.5,0.7-3,1.1-4.5c0.1-0.3,0.2-0.6,0.4-0.8c0.1-0.1,0.4-0.2,0.5-0.2
			c0.1,0,0.3,0.2,0.3,0.4c0,0.6,0,1.1-0.1,1.7c-0.1,0.5-0.2,1-0.3,1.5c0,0.2,0.1,0.4,0.1,0.5c0.1-0.1,0.3-0.1,0.4-0.2
			c0.7-0.5,1.5-1.1,2.2-1.6c0.8-0.5,1.6-1.1,2.4-1.5c0.9-0.5,1.9-0.7,2.9-1.1c0.4-0.2,0.8-0.3,1.2-0.5c0.8-0.4,1.7-0.6,2.6-0.7
			c1.3,0,2.4,1.1,2.8,2.1c0.4,1,0.2,2,0.1,3.1c-0.1,0.6,0,1,0.3,1.5c0.5,0.7,0.9,1.4,1.4,2c0.2,0.4,0.4,0.4,0.7,0
			c0.3-0.5,0.6-0.9,1-1.4c1-1.2,2-2.4,3.2-3.4c0.7-0.7,1.4-1.4,2.1-2c0.2-0.2,0.4-0.3,0.6-0.5c0.5-0.5,0.9-1.1,1.4-1.6
			c0.4-0.6,0.9-0.9,1.6-0.9c0.6,0,0.8,0.2,0.7,0.8c0,0.8-0.1,1.6-0.3,2.3c-0.3,1.6-0.9,3.1-1.6,4.6c-0.4,0.9-0.9,1.7-1.3,2.6
			c-0.7,1.5-1.4,3-2.1,4.4c-0.2,0.4-0.4,0.9-0.6,1.3c-0.2,0.4,0,0.6,0.4,0.6c0.5,0,0.9-0.2,1.2-0.5c0.6-0.6,1.1-1.3,1.5-2
			c0.7-1.1,1.4-2.3,2.2-3.3c0.7-0.9,1.7-1.7,2.4-2.6c1.1-1.3,2.5-2.2,3.8-3.3c0.4-0.3,1-0.5,1.5-0.7c0.6-0.2,1-0.5,1.3-1
			c0.1-0.3,0.4-0.5,0.6-0.4c0.6,0.3,1.1-0.1,1.7-0.3c1-0.4,2-0.8,3-1.2c0.4-0.1,0.9-0.1,1.4,0c0.4,0,0.5,0.4,0.1,0.6
			c-0.4,0.3-0.8,0.5-1.2,0.6c-1.3,0.5-2.7,1-4,1.6c-0.6,0.3-1.1,0.7-1.7,1.1c-0.1,0.1-0.3,0.2-0.4,0.3c-1.2,0.5-2.1,1.5-3,2.4
			c-1,0.9-1.9,1.8-2.8,2.8c-0.9,1.1-1.8,2.2-2.7,3.3c-0.5,0.6-0.9,1.3-1.1,2.1c-0.6,1.5-1.3,3-1.6,4.6c0,0.2-0.1,0.4-0.1,0.5
			c0.1,1.4,0.1,2.8,0.2,4.2c0,0.3,0.1,0.6,0.3,0.8c0.6,0.4,1.2,0.8,1.8,1.1c0.2,0.1,0.4-0.1,0.7-0.1c0.5,0,1.1,0.1,1.6,0.1
			c0.5,0,0.9,0,1.3-0.2c1-0.4,1.9-0.9,2.8-1.3c0.8-0.4,1.4-1,2-1.6c0.7-0.8,1.4-1.6,2.1-2.4c1-1.2,2-2.3,3.1-3.5
			c0.3-0.3,0.5-0.7,0.9-0.9c0.2-0.1,0.5-0.3,0.7-0.2c0.3,0.1,0.5,0.4,0.5,0.8c0,0.5-0.1,1-0.6,1.3c-1.3,0.9-2.3,2-3.2,3.2
			c-1.1,1.3-2.3,2.5-3.4,3.7c-0.5,0.5-1,1-1.6,1.3c-1.1,0.5-2.3,0.9-3.5,1.3C166.2,33.3,165.8,33.2,165.4,33.2z M149.7,9.4
			c0-0.2,0-0.5-0.1-0.7c-0.3-0.9-0.5-1.4-1.7-1.3c-0.5,0-1,0.2-1.5,0.4c-0.6,0.3-1.1,0.7-1.8,0.6c-0.2,0-0.4,0.1-0.6,0.2
			c-0.6,0.3-1.3,0.5-1.9,0.8c-0.1,0-0.3,0.1-0.3,0.2c-0.8,0.9-2.1,1.3-3,2.1c-0.9,0.8-1.9,1.6-2.7,2.4c-1.1,1.1-1.5,2.6-1.7,4.1
			c-0.1,1,0.2,1.8,1.3,2c0.9,0.1,1.6,0.5,2.4,0.9c0.1,0.1,0.3,0.1,0.4,0.1c0.6,0.1,1.1,0,1.7,0.1c0.5,0.1,1-0.1,1.4-0.3
			c0.4-0.3,0.8-0.6,1.2-0.9c0.2-0.2,0.5-0.4,0.7-0.5c1.2-0.6,2.2-1.6,3.2-2.6c0.4-0.4,0.5-0.9,0.5-1.4c0-0.5,0-1-0.1-1.5
			c-0.1-1.5,0.6-2.5,1.8-3.1C149.5,10.6,149.7,10.1,149.7,9.4z M155.8,21c0.3,0.1,0.6-0.1,0.8-0.4c0.1-0.2,0.2-0.3,0.3-0.5
			c0.6-1.2,1.1-2.3,1.7-3.5c0.5-1,1.2-1.9,1.7-2.9c0.4-0.6,0.9-1.1,1.1-1.9c0.2-0.9,0.6-1.8,0.8-2.7c0.2-0.6,0.3-1.2,0.4-1.8
			c0-0.1-0.1-0.3-0.1-0.4c-0.1,0.1-0.3,0.1-0.4,0.2c-0.2,0.2-0.4,0.5-0.6,0.7c-1.1,1-2.3,1.9-3.3,3c-1.5,1.5-2.8,3.2-4,5
			c-0.3,0.4-0.3,0.9-0.2,1.3c0.1,0.4,0.2,0.7,0.3,1.1c0.2,0.7,0.3,1.4,0.5,2.1C155,21,155.1,21,155.8,21z M125.1,30.4
			c0.3-0.1,0.6-0.2,0.8-0.3c0.3-0.1,0.5-0.3,0.7-0.5c0.7-0.7,1.4-1.3,2.1-2c0.3-0.3,0.5-0.8,0.8-1.2c0.8-1,1.4-2.1,1.8-3.3
			c0.3-0.8,0.7-1.5,1-2.3c0.1-0.2,0.2-0.3,0.2-0.5c0.2-0.8,0.3-1.6,0.5-2.4c0-0.1,0.1-0.3,0.1-0.4c0-0.1,0-0.3-0.1-0.4
			c-0.1,0.1-0.3,0.1-0.4,0.2c-0.4,0.4-0.7,0.8-1.1,1.3c-0.5,0.6-1.2,1.2-1.6,1.8c-0.9,1.2-1.7,2.5-2.6,3.8c-0.4,0.5-0.7,1.1-1,1.7
			c-0.5,1-1,2-1.4,3.1c-0.1,0.3-0.3,0.6-0.4,0.9C124.4,30.2,124.6,30.3,125.1,30.4z M149.1,16.9c0.2,0.4,0.4,0.9,0.7,1.4
			c0.3,0.4,0.5,0.4,0.9,0.1c0.3-0.3,0.5-0.7,0.9-1c1.4-1.2,0.8-3-0.4-3.7c-0.4-0.3-0.5-0.2-0.8,0.2c-0.4,0.7-0.7,1.4-1,2.1
			C149.2,16.3,149.2,16.6,149.1,16.9z M152.8,20.3c0.7,0,0.8-0.1,0.7-0.8c0-0.3-0.1-0.7-0.3-1c-0.1-0.3-0.3-0.4-0.6-0.2
			c-0.3,0.2-0.5,0.5-0.7,0.8c-0.4,0.5-0.3,0.8,0.3,1C152.4,20.2,152.6,20.3,152.8,20.3z"/>
		<path d="M179.7,27.6c0.1,0.6,0.1,1.2,0.3,1.7c0.2,0.8,0.8,1.4,1.7,1.5c0.5,0,1,0,1.5-0.2c0.9-0.4,1.9-0.8,2.7-1.2
			c0.8-0.4,1.6-0.9,2.4-1.4c1.5-1,2.8-2.3,3.6-3.9c0.2-0.4,0.5-0.6,0.8-0.5c0.4,0.1,0.5,0.4,0.5,0.8c0,0.3-0.1,0.6-0.2,1
			c0,0.1-0.1,0.2-0.1,0.3c-1.1,1.5-2.3,3-4,4c-1.5,0.8-3,1.8-4.5,2.6c-1,0.5-2.2,0.8-3.4,0.5c-1.3-0.3-2-1.3-2.4-2.5
			c-0.5-1.6-0.5-3.2-0.1-4.8c0.2-0.8,0.6-1.6,1.1-2.3c0.8-1.2,1.8-2.3,2.8-3.3c0.6-0.6,1.2-1,1.9-1.4c0.5-0.3,1-0.6,1.5-0.9
			c0.4-0.3,0.6-0.8,0.4-1.2c-0.2-0.5-0.6-0.7-1.3-0.6c-0.2,0-0.5,0.1-0.7,0.1c-0.4,0-0.6-0.4-0.6-0.8c0-0.4,0.2-0.6,0.6-0.6
			c0.7-0.1,1.4-0.2,2-0.4c0.5-0.2,0.6-0.7,0.6-1.1c0.1-1.7,0.8-3.2,1.8-4.6c0.7-1.1,1.6-2,2.6-2.8c1.1-0.9,2.3-1.5,3.8-1.7
			c0.6-0.1,1.3-0.2,1.9-0.2c1.2-0.1,2.8,0.5,3,2.3c0.1,0.8-0.1,1.6-0.6,2.2c-1.5,2.3-3.3,4.2-5.7,5.5c-0.6,0.3-1.3,0.6-2,0.8
			c-0.8,0.3-1.6,0.7-2.3,1.2c-0.1,0-0.1,0.1-0.2,0.2c0.1,0,0.1,0.1,0.2,0.1c0.5,0,0.9-0.1,1.4-0.1c0.7,0,1.3,0.3,1.9,0.7
			c0.5,0.4,0.6,0.9,0.5,1.5c-0.2,1.4-1.1,2.3-2.4,2.8c-1,0.3-2.1,0.5-3-0.4c-0.2-0.3-0.4-0.6-0.6-0.9c-0.3-0.5-0.5-0.6-1-0.2
			c-1,0.7-2.1,1.5-3.1,2.3c-0.1,0.1-0.2,0.2-0.3,0.3c-0.9,1.2-1.9,2.3-2.7,3.6c-0.3,0.5-0.3,1.1-0.5,1.6
			C179.7,26.9,179.7,27.2,179.7,27.6C179.7,27.5,179.7,27.5,179.7,27.6z M198.6,6c-0.1-0.4-0.3-0.6-0.7-0.8
			c-0.8-0.2-1.6-0.3-2.3-0.4c-1.1-0.2-1.8,0.2-2.5,0.9c-0.1,0.1-0.2,0.2-0.3,0.3c-1.2,0.8-2.3,1.6-3,2.9c-0.4,0.8-1.1,1.5-1.3,2.4
			c-0.1,0.5-0.2,1-0.3,1.5c-0.1,0.6,0.2,0.8,0.8,0.6c0.7-0.3,1.4-0.7,2.1-0.9c1.2-0.3,2.2-0.8,3.1-1.5c0.9-0.6,1.7-1.4,2.4-2.2
			c0.5-0.6,1-1.2,1.5-1.8C198.3,6.8,198.4,6.4,198.6,6z M190.5,17.2c-0.6-0.2-1.1,0.2-1.6,0.5c-0.3,0.2-0.4,0.4-0.3,0.6
			c0.1,0.2,0.3,0.5,0.5,0.5c0.7,0.1,1.4,0,2-0.5c0.3-0.2,0.6-0.5,0.4-0.8c-0.1-0.2-0.5-0.2-0.8-0.3
			C190.7,17.2,190.6,17.2,190.5,17.2z"/>
		<path d="M134.5,5.8c0.1,2-0.6,3.9-1.3,5.7c-0.1,0.2-0.2,0.4-0.4,0.6c-0.2,0.2-0.4,0.5-0.8,0.3c-0.3-0.1-0.6-0.4-0.5-0.8
			c0-0.3,0-0.8,0.2-1c0.7-1,0.9-2.1,1.1-3.2c0.1-0.6,0.3-1.2,0.4-1.8c0-0.3,0-0.5-0.1-0.8c-0.2-0.4-0.4-0.6-0.9-0.6
			c-0.2,0-0.3,0-0.5,0c-0.7-0.1-1.4,0.1-2,0.4c-0.3,0.2-0.7,0.3-1.1,0.4c-0.8,0.2-1.4,0.7-2,1.3c-1.7,1.6-3,3.5-4.3,5.5
			c-0.9,1.4-1.9,2.9-2.8,4.3c-0.2,0.3-0.4,0.7-0.5,1c-0.1,0.5-0.3,1-0.7,1.4c-0.2,0.2-0.4,0.6-0.5,0.9c-0.3,0.9-0.6,1.9-0.9,2.8
			c-0.8,2.3-1.7,4.6-3.3,6.5c-0.7,0.8-1.3,1.6-2,2.3c-0.6,0.6-1.3,1-1.9,1.5c-0.5,0.4-1.1,0.3-1.7,0.2c-0.4-0.1-0.9-0.2-1.3-0.3
			c0,0,0,0-0.1,0c-1.3-0.7-2.4-1.5-2.9-3c-0.3-0.8-0.2-1.7-0.1-2.5c0.1-0.7,0.1-1.3,0.2-2c0.1-0.5,0.2-1,0.8-1.2
			c0.2-0.1,0.4,0,0.6,0c0,0.2,0,0.4,0,0.6c-0.1,0.5-0.2,1-0.3,1.5c-0.1,0.5-0.1,1.1-0.1,1.6c-0.2,1.9,1.2,3.2,2.7,3.5
			c0.3,0,0.6,0.1,0.9,0.2c0.4,0.1,0.8,0,1-0.2c1.2-1.1,2.4-2.3,3.4-3.5c1.1-1.2,1.7-2.7,2.2-4.2c0.5-1.4,0.9-2.8,1.3-4.2
			c0.5-1.3,1-2.6,1.9-3.7c1.1-1.4,2-2.9,2.9-4.3c1-1.6,2.2-3.1,3.3-4.5c0.7-0.9,1.6-1.7,2.5-2.5c0.2-0.2,0.4-0.3,0.6-0.4
			c0.7-0.3,1.5-0.6,2.2-0.8c0.3-0.1,0.6-0.1,0.9-0.1c0.3,0,0.6,0.1,0.9,0c1.6-0.4,2.3,0.4,2.7,1.7C134.4,4.8,134.4,5.3,134.5,5.8z"
			/>
		<path d="M183.8,8.1c-0.1,0.8-0.3,1.7-0.5,2.6c-0.1,0.3-0.1,0.6-0.2,0.9c-0.2,0.4-0.6,0.5-0.9,0.4c-0.2-0.1-0.5-0.5-0.4-0.8
			c0.2-0.6,0.3-1.3,0.5-1.9c0.3-0.9,0.3-1.7-0.1-2.6c-0.1-0.2-0.1-0.5-0.1-0.7c0-0.1,0.2-0.4,0.3-0.4c0.1,0,0.4,0.1,0.5,0.2
			c0.3,0.5,0.5,1.1,0.7,1.6C183.8,7.5,183.8,7.8,183.8,8.1z"/>
		<path d="M177,12.4c0.2-0.3,0.2-0.6,0.5-0.7c0.2-0.1,0.6,0,0.8,0.1c0.6,0.3,1.2,0.6,1.8,0.9c0.5,0.3,0.5,0.4,0.1,0.8
			c-0.5,0.4-1,0.6-1.5,0.3c-0.4-0.2-0.9-0.4-1.2-0.7C177.1,13,177.1,12.7,177,12.4z"/>
		<path d="M181,5.9c-0.5,0-0.9-0.3-0.8-0.6c0-0.2,0.1-0.5,0.4-0.4c0.4,0,0.8,0.4,0.7,0.7C181.2,5.7,181,5.8,181,5.9z"/>
	</g>
</g>
</svg>
