<?xml version="1.0" encoding="UTF-8"?><svg id="Layer_2" xmlns="http://www.w3.org/2000/svg" viewBox="0 0 828 810.37"><g id="image"><path d="M621.59,643.36c-.99,4.38-10.22,31.61-28.69,86.07-2.6,7.67-7.84,22.65-20.81,37.35-10.26,11.63-26.74,24.66-31.11,21.38-8.12-6.09,28.98-66.07,32.93-75.32,84.7-198.54,26.13-418.52-36.08-614.5l-21.39-47.86-32.58,116.12c19.6,60.92,64.81,135.99,74.4,198.19,8.21,53.22-51.2,235.22-72.2,293.69-10.56,29.41-39.41,111.23-54.3,133.12-4.94,7.26-11.7,13.68-18.85,18.79-7.86-7.43-19.04-18.91-30.59-34.45,0,0-10.78-13.6-19.1-29.61-47.42-91.22-98.55-224.11-114.29-325.62-13.46-86.77,39.72-145.41,62.09-224.15,11.97-42.13-5.09-50.64-20.3-85.41-6.18-14.13-7.72-30.88-17.06-44.96-2.98-4.48.61-8.64-10.65-6.18-14,51.83-36.14,101.12-50.32,152.95-45.2,165.2-47.72,340.24,30.22,495.88,7.23,14.43,62.64,87.78,53.49,97.08-20.27,3.27-40.54-21.63-52.47-35.94-51.18-61.43-73.92-154.19-86.22-231.78l-17.74,113.68c-9.35,32.3-41.55,84.09-76.57,90.74-23.23,4.41-46.08,1.97-58.89-20.09-19.27-33.19,27.99-67.67,48.43-38.87,6.94,9.79.34,31.4,11.52,26.61,44.54-32.14,54.23-89.29,59.76-141.09,6.65-62.42-4.46-136.02,6.27-194.56,9.56-52.14,36.88-132.67,54.49-184.58,21.01-61.93,46.6-122.85,73.44-182.4,4.99-1.08,9.73-.6,14.24,2.03,23.23,13.53,42.9,96.66,59.61,122.05,22.09-42.77,29.28-93.34,59.76-131.71h14.41l59.74,122.21L514.81,3.32c16.76-7.56,26.73,19.12,32.61,32.84,32.59,76.11,91.53,219.4,110.18,296.25,28.72,118.33,14.77,270.32,105.07,363.53,6.38-30.8,20.37-35.92,50.4-35.82,41.29,44.08-11.39,88.92-57.09,66.38-47.89-23.62-66.46-85.26-84.19-130.95l-26.29-124.33c-2.15,30.67-8.12,102.18-23.91,172.14ZM396.9,313.43c6.7-.61,7.63-6.86,9.72-11.75,4.61-10.75,38.45-122.52,38.49-129.26.21-36.24-34.06-87.07-45.87-121.88l-50.62,126.69,48.27,136.2ZM406.47,762.89c6.81-.55,7.51-7.04,9.69-11.77,54.9-118.67,89.7-286.4,70.9-415.53-5.23-35.95-16.34-72.5-23.32-108.2l-28.56,117.19-14.07,282.38-16.6,1.64-6.94-7.49-10.67-190.16-47.49-198.81c-9.6,1.84-7.81,10.1-9.5,16.73-30.95,121.48-28.72,247.47,10.78,366.96,16.83,50.92,48.93,97.2,65.77,147.06Z"/></g></svg>