<?xml version="1.0" encoding="UTF-8"?><svg id="Layer_2" xmlns="http://www.w3.org/2000/svg" viewBox="0 0 715.87 949.42"><g id="image"><path d="M133.97.37c-.6,21.35-25.31,19.16-35.02,41.83-14.71,34.35,26.2,135.14,59.94,144.37,28.39,7.77,74.98-50.7,98.75-65.65l66.85,73.13,60.16-73.29,54.45,59,79.22-52.68c21.06-.02,103.57,117.06,150.37,93.86.09,13.73-10.8,21.07-15.37,34.7-16.78,50.07-17.17,193.98-11.54,249.55,1.82,17.99,13.67,29.96,13.82,46.34.74,83.78-17.2,174.17-7.07,261.06,2.55,21.88,12.03,39.38,33.22,47,13.6,4.89,36.75-3.79,33.88,13.08-2.19,12.86-59.77,70.29-70.31,70.37l-76.9-83.92c5.5-76.94,15.17-177.42,6.73-253.88-2.43-21.96-19.91-45.24-19.87-53.46.05-9.74,18.64-32.98,19.24-54.15.37-12.9-6.4-25.48-6.37-39.18.13-59.21-1.81-118.82,4.16-177.67-24.42-36.72-67.71-57.57-100.7-86.68-10.78,6.44,1.43,15.03,6.72,20.02,20.52,19.37,67.87,33.27,69.85,64.18,3.11,48.6-35.13,39.86-39.44,53.66-2.14,6.85,6.28,26.92,6.58,39.05,2.03,82.51,2.98,166.33,3.72,248.76.57,63.3-10.13,129.44-4.36,192.98,2.92,32.23,12.74,50.19,46.87,56.78,12.48,18-46.73,59.32-62.54,66.28l-63.84-64.15c1.95-21.69,16.89-28.04,19.84-52.38,19.13-157.96-14.91-353.15.18-515.18-25.71-67.63-72.5-66.33-74.44,13.78-1.09,44.96-4.75,125.9.41,167.2,2.81,22.47,18.85,37.41,19.95,53.65,1.18,17.43-11.78,39.91-13.04,59.88-3.13,49.37-7.18,194.89,5.04,235.46,1.88,6.25,10.93,11.88,13.72,18.53l-62.27,90.04-49.15-85.01c21.24-74.74,27.74-174.69,19.09-252.41-2.47-22.14-19.69-47.61-19.62-60.17.07-13.33,18.16-49.49,19.57-73.68,1.23-21.02-5.71-37.85-5.3-53.29,1.28-48.66,26.97-124.21-36.87-142.94l-34.84,49.11,10.04,481.67c-2.72,20.62,22.36,34.27,20.57,52.97-1.72,18.04-46.2,49.2-40.88,76.79-25.43,21.74-53.21-61.3-66.3-76.41,3.19-13.32,14.19-22.76,17.11-36.29,19.12-88.7,3.89-218.18,2.55-311.04-.85-58.92,14.36-168.22-11.7-215.56-12.62-22.92-43.5-56.6-48.5-12.29-18.02,159.91,51.73,445.66-27.58,580.66-19.4,33.01-56.31,70.26-92.38,84.68-4.31-4.48,31.69-61.2,36.6-73.62,22.8-57.63,23.97-206.34,16.84-270.57-2.08-18.71-19.45-47.61-18.78-52.18,1.42-9.67,16.17-24.65,18.78-48.08,3.81-34.28,4.84-127.61.36-160.78-2.91-21.55-14.31-21.75-19.99-38.83l79.67-67.75C58.1,184.11,38.92,95.3,87.25,30.45,97.23,17.06,115.4-2.95,133.97.37ZM627.86,241.76c-46.81-14.57-75.3-56.05-109.63-87.67-55.86,27.59,63.01,77.67,69.04,98.13,7.63,83.32,12.69,169.14,8.28,253.09-2.18,41.57-5.43,29.2-.64,73.52,5.66,52.29,3.79,107.68,3.22,160.08-.41,37.38-2.42,76.89-7.42,114.08l54.58,63.02,22.95-29.14c-71.49-62.16-45.98-197.21-46.59-288.6-.2-30.71-.02-62.2,0-93.02.06-87.81-3.38-176.54,6.2-263.49ZM260.19,161.66c-19.85-4.64-31.37,6.22-22.46,25.67,12.96,28.28,93.8,87.62,96.85,103.7,0,66.95-.23,133.89.22,200.85.63,92.26,8.07,187.94,6.62,280.1-.62,39.28-31.17,77.79,3.1,117.29,47.1-36.33,18.83-64.69,16.51-110.02-4.75-92.89.57-189.19-.04-280.69-.5-75.79,1.09-151.62.15-227.41l-100.95-109.49ZM387.93,240.95c7.5-8.02-39.86-54.43-46.69-46.75-4.3,29.37,27.32,36.27,46.69,46.75ZM247.51,287.7c-1.3-10.57,14.2-20.21,12.75-29.07-.99-6.08-44.89-59.1-55.12-57.21l-17.54,16.15c15.95,5.38,47.04,79.59,59.91,70.14ZM80.46,849.21c29.32-84.25,18.77-169.73,19.82-257.61.88-73.69,4.65-151.92.58-227.27-1.36-25.08-11.53-50-7.03-76.59-10,3.3-18.78,13.31-20.16,23.79-4.99,37.88,9.28,101.81,7.14,146.93-3.36,70.92-1.78,104.44,0,173.23,1.78,69.12,6.3,148.54-13.52,214.3l13.18,3.22Z"/></g></svg>