<?xml version="1.0" encoding="UTF-8"?><svg id="Layer_2" xmlns="http://www.w3.org/2000/svg" viewBox="0 0 843.62 1164.4"><g id="image"><path d="M384.62,210.71c-8.1.95-16.13-7.05-24.15-4.28-7.49,2.58-4.08,14.14-11.68,13.27-5.54-28.78,25.42-30.16,35.83-8.99Z"/><rect x="353.23" y="224.18" width="8.98" height="17.99" transform="translate(123.74 590.37) rotate(-89.87)"/><path d="M398.08,574c2.09-13.17-6.74-44.15,19.72-35.49,13.49,4.42-2.39,62.95,38.02,52.81,9.78-18.2,14.92-43.66,2.6-61.96-4.93-7.32-14.95-9.12-17.74-13.66-5.55-9.03,1.12-126.3,4.28-143.72,13.19-72.93,85.07-94.87,122.35-23.26,12.21,23.46,13.24,49.12,20.34,69.35,8.34,23.75,26.64,47.43,29.34,74.29,2.38,23.73-34.46,36.06-18.16,76.01,7.54,18.48,29.7,19.61,38.93,32.8,9.24,13.21,12.63,39.04,19.46,52.29,12.25,23.75,42.36,73.31,59.37,93.1,16.84,19.6,39.01,43.54,67.15,38.17l-31.01-11.53c-35.04-17.89-81.9-160.13-69.83-185.69,2.7-5.72,12.4-8.91,14.74-16.64,8.16-27.01-6.3-57.11-34.94-59.63,8.71,18.4-7.51,84.57-29.25,49.36-6.15-9.97,13.39-56.2,11.52-78.51-2.15-25.63-55.52-118.54-72.84-142.68-21.53-30.01-33.08-51.19-75.39-43.5,17.01-29.66,79.01,16.63,89.58,11.51l125.64-161.74c15-14.44,13.19,5.41,12.26,16.66-7.58,91.5-46.35,197.48-51.86,291.7,6.53,33.89,29.19,41.34,46.51,61.51,14.56,16.96,20.97,41.35,13.59,63.23-6.1,18.09-29.96,10.63-16.97,43.32,2.5,6.3,10.9,12.54,12.56,18.98,2.01,7.8-3.69,15.33-1.82,23.67,6.41,28.66,32.26,109.33,72.3,96.74,7.79-2.45,33.92-29.46,42.6-.48,12.39,41.37-23.56,59.65-59.74,55.24-58.44-7.12-119.57-131.05-143.41-179.44-1.59,47.91-5.47,97.95-2.41,145.91,3.94,61.61,28.05,162.34,67.47,210.58,12.73,15.58,32.45,32.79,53.79,29.13-18.87-40.68,38.08-31.76,30.78-3.15-3.32,13-27.53,26.42-41.43,25.46-41.86-2.88-67.92-48.16-85.85-80.48-31.28-56.37-49.01-117.32-64.97-179.49-12.03-3.28-8.34,7.45-15.47,13.46-20.12,16.95-37.9,16.23-60.7,2.17-1.15-5.46,24.94-24.04,31.26-31.44,8.97-10.51,19.91-28.43,26.38-40.89,9.04-17.4,43.06-109.33,35.62-121.81-1.21-2.02-9.51-3.62-12.7-7.26-17.65-20.17-26.36-45.18-16.82-71.15,3.9-10.6,13.8-19.16,16.02-28.78,7.65-33.15-23.43-88.73-30.5-122.39-6.56-4.88-28.29,25.52-33.2,31.76-9.8,12.46-59.63,82.85-60.83,91.93-3.35,25.32,36.31,51.12,18.94,90.45-2.95,6.67-11.82,11.4-13.75,17.79-8.89,29.44,52.99,54.67,57.42,84.34l-53.09,63.65,21.79,68.51c-19.15,1.88-33.5-.41-49.13-11.64-5.29-3.8-2.74-15.24-15.53-10.43l-36.2,44.5c-23.21-50.36-29.6-24.23-58.57-28.72s4.92-37.42,6.2-41.75c8.54-28.84-46.45-75.42-53.42-102.07l57.95-63.83c-4.93-21.84-10.68-38.82-8.5-62.1,1.26-13.42,10.15-27.42,9.35-35.43-1.52-15.3-77.75-74.73-87.68-96.57-9.03-3.94-11.22,26.63-14.65,34.58-3.41,7.9-13.73,12.56-14.51,21.49-.23,2.65.29,45.81.72,48.23,1.83,10.15,12.28,15.7,16.06,24.69,16.4,39.01-6.75,73.35-42.98,86.85l-1.07,6.03c11.72,52.71,26.65,108.72,59.03,152.25l4.16,15.97c-20.56,4.79-27.95-14.13-44.8-17.89-7.28,66.53-12.88,178.26-58.24,231.01-15.68,18.24-62.79,42.65-81.2,18.28-22.55-29.86,33.26-46.23,27.32-7.12,33.05-.97,53.48-42.84,61.53-70.78,25.9-89.9,17.14-182.5,14.65-274.56-19.08,18.89-30.66,67.67-47.17,85.36-6.08,6.52-14.27,14.41-22.07,22.52-24.88,25.86-47.48,43.46-86.52,27.75-11.59-4.66-37.27-37.85-39.81-50.28-5.09-24.9,20.35-37.35,40.21-26.48,19.73,10.81,10.94,38.18,36.8,22.07,6.56-4.08,20.74-21.22,25.3-28.5,13.09-20.89,36.12-107.78,29.58-129.99-1.8-6.1-10.17-10.97-13.42-17.94-12.05-25.87-6.59-66,14.33-86.16,9.07-8.75,26.06-10.62,27.12-22.41l-62.95-298.21,13.66,2.96,127.58,158.35c21.28-22.59,34.38-43.37,67.69-48.81,4.56-.75,16.45-3.63,15.25,4.05-19.96,2.15-39.93,9.81-53.75,24.75-13.11,14.17-89.61,147.2-89.85,161.27-.1,5.68,4.03,33.52,5.57,39.53,3.41,13.26,20.82,21.27,8.37,37.19-42.61,25.99-17.45-46.58-27.31-56.39-35.43-4.14-45.96,35.42-39.35,64.08,3.28,14.21,17.8,19.7,20.53,28.73,8.97,29.67-18.61,126.89-36.54,154.47-24.05,37-78.21,55.33-90.32-.62-15.97,14.65,2.11,32.12,15.68,38.07,61.8,27.11,104.83-62.8,124.92-108.24,7.86-17.79,17.69-61.75,25.43-73.23,8.95-13.27,41.39-6.82,46.57-47.65,4.87-38.41-10.99-32.14-19.87-51.27-5.19-11.18,15.69-78.62,21.4-95.14,15.85-45.83,35.57-106.97,95.03-97.29,16.3,2.65,47.54,29.82,40.63,49.04-11.67-11.04-40.31-27.05-55.84-20.15-14.92,6.63-33.46,26.24-31.61,44.42,1.94,19.09,76.94,87.28,94.16,105.8v-65.03c0-1.31,4.76-24.92,8.92-24.64-4.45,27.44,7.58,56.13,4.11,82.54-4.12,31.34-55.3,60.57-19.66,101.34,6.61,1.43,21.21-16,29.05-17.97-2.66,16.81-12.04,31.48-13.38,43.05-2.66,22.9,3.29,61.46-.13,89.19-3.13,25.31-11.27,49.64-17.83,74.06,23.41-14.9,36.35-38.24,47.09-62.83,18.38-.02,16.63,55.78,38.03,62.83-5.04-31.81-10.69-64.32-13.37-96.46-1.92-23.01,3.88-54.25-.97-75.27-2.88-12.5-17.42-19.22-17.66-33.87-1.8-1.55-18.29-1.57-21.77-.7ZM653.65,417.04c11.72-51.36,14.54-104.43,13.46-156.95-24.63,21.99-46.79,44.69-62.81,73.92l49.35,83.04ZM173.9,452.92c11.56-10.48,50.64-72.09,49.63-82.86l-2.5-6.84-65.07-58.29,17.94,147.99ZM469.86,457.38c8.06,1.61,11.19-3.96,15.41-9.21,18.61-23.15,36.43-56.79,51.85-82.69,4.5-7.56,21.01-12.68,8.82-22.3-19.19-15.14-47.2-7.92-60.01,11.48-16.65,25.2-9.4,29.41-11.42,50.96-1.57,16.8-8.03,33.58-4.65,51.77ZM375.64,632.33c-12.51-2.19-7.51,2.69-10.09,9.83-8.76,24.25-14.32,65.85-1.08,88.78l11.17-98.62ZM478.76,690.58v-22.38h-4.39v22.38h4.39ZM402.61,811.68c10.88-8.73,38.57-25.77,20.07-40.32l-20.07,40.32Z"/><path d="M434.03,946.2c14.26,3.96,5.28-9.3,11.53-13.86,3.55-2.59,22.63-5.7,24.26-4.06,4.34,64.85-56.79,32.44-56.01-13.43-11.75,19.1-19.37,50.45-48.41,44.06-19.29-5.72-12.07-42.81-4.99-44.35l15.57,2.21c9.9,7-3.94,29.1,13.07,24.96l18.08-80.68c20.85.51,11.58,29.7,14.53,45.9,2.51,13.76,8.54,26.03,12.36,39.26ZM371.15,928.31h-8.92v13.41h8.92v-13.41ZM462.01,946.13c0-3.06-2.48-5.54-5.54-5.54s-5.54,2.48-5.54,5.54,2.48,5.54,5.54,5.54,5.54-2.48,5.54-5.54Z"/><path d="M478.8,300.49c-27.94,30.9-57.45,55.52-67.34,98.6-10.47,2.28-7.17-1.43-9.98-5.76-17.96-27.72-27.71-64.5-57.2-86.18,23.58-17.66,64.92,51.37,69.49,51.51,18.92-20.04,36.27-51.65,65.03-58.17Z"/><path d="M420.48,1058.36c-8.75,31.3-.57,66.09-4.45,96.48-.79,6.16-3.12,13.85-8.95,6.67l-4.06-95.79,17.46-7.36Z"/><path d="M420.48,986.61c-4.35,15.54,3.31,56.63-17.89,58.26.27-15.51,2.97-33.81,7.73-48.5,2.43-7.52-1.98-11.83,10.16-9.76Z"/><path d="M420.48,408.1l-8.94,15.69c12.32,1.65,10.51,20.99,2.23,29.04-6.64-.07-21.33-54.61,6.7-44.73Z"/><path d="M469.38,250.64c-10.09,6.11-26.93-3.89-21.95-17.44l17.89,13.41,2.24-22.38c9.92,3.91,5.16,24.38,1.81,26.41Z"/><path d="M460.82,219.72c-17.23-10.3-23-1.02-35.79,8.97-7.57-7.88,32.89-41.28,35.79-8.97Z"/><rect x="411.58" width="4.39" height="17.89"/><circle cx="407.14" cy="80.61" r="5.54"/><circle cx="411.63" cy="959.58" r="5.54"/><rect x="411.58" y="26.91" width="4.39" height="13.41"/><rect x="411.56" y="461.93" width="8.92" height="4.39"/><path d="M420.49,681.66v26.85s-17.9,0-17.9,0c-3.68-3.47,6.09-31.09,17.9-26.85Z"/><path d="M420.48,663.72c-.07,16.44-13.34,16.44-13.41,0h13.41Z"/><rect x="407.07" y="650.29" width="8.92" height="4.39"/></g></svg>