<?xml version="1.0" encoding="UTF-8"?><svg id="Layer_2" xmlns="http://www.w3.org/2000/svg" viewBox="0 0 1087.76 713.59"><g id="image"><path d="M1024.23,508.18c-10.25,3.98-19.13,15.92-22.95,30.59-10.49,40.21,24.56,89.91,48.61,43.32,8.7-16.85.63-40.88,13.9-38.26,36.61,125.45-63,153.42-130.71,126.11,4.1-28.04,19.48-51.44,22.83-80.82,9.29-81.48-22.19-164.68-89.46-140.31-15.75,5.7-33.58,25.92-36.19,48.7-11.06,96.53,86.05,60.07,35.79-11.93,11.2-36.05,58.07,6.63,64.83,31.04,7.67,27.68.42,137.31-27.47,136.98-3.47-.04-53.34-42.74-59.49-49.44-54.52-59.41-95.18-158.44-134.67-236.13l-2.28-13.19c7.05-28.42,2.3-57.84,5.21-86.68,8.79-87.19,37.65-176.14,50.49-261.97-58.32,22.74-85.12,119.3-126.75,175.53-3.98-9.58-9.89-24.64-15.89-43.89-7.51-24.1-13.72-44.01-18.66-71.58,0,0-2.79-15.58-13.95-50.6-1.19-3.74-3.99-11.94-9.67-14.5-1.52-.69-3.25-.89-5.25-.45-2.89,50.74-3.63,91.59-3.82,117.66-1.02,135.96,10.22,203.94-16.64,290.42-5.12,16.47-10.23,29.15-13.28,36.34-7.01-.17-19.44-39.06-23.02-49.44-25.09-72.84-11.86-150.7-14.42-233.38-1.19-38.33-3.46-100.21-8.34-136.58-1.3-9.72-3.88-18.74-9.66-24.93-7.92.06-28.67,115.63-33.53,134.52-3.66,14.25-7.48,37.43-15.96,46.4C392.89,89.93,344.56-9.29,328.82.7c-2.88,1.83-7.18,7.56-5.25,23.33,4.76,38.95,31.82,113,40.89,157.63,7.08,34.85,25.57,129.72,20.85,160.67-9.53,62.55-98.06,210.14-135.82,250.85-7.61,8.21-16.68,12.65-24.62,18.11-1.71,1.85-3.56,3.41-5.17,4.65-.7.54-1.46,1.06-2.25,1.55-6.34,7.28-15.52,23.11-24.05,24.09-16.21,1.88-35.66-53.3-33.3-72.38.01-.11.18-.3.43-.54-.61-4.14-.67-8.07-.2-12.13.72-27.62,17.21-67.47,37.83-72.8,8.87-2.29,33.01-3.15,37.44,10.64-59.84,5.89-28.71,92.53,19.97,80.08,34.66-67.75.5-141.64-59.71-121.33-62.45,21.07-76.78,141.38-35.49,203.09.08,3.85-11.22,7.22-14.25,7.71-22.94,3.77-62.95-.1-83.01-15.7-32.05-24.92-49.66-59.77-33.51-109.88,6.71-.7,3.61,12.28,7.63,19.49,26.07,46.66,79.85-7.84,45.89-52.54-19.74-25.98-52.57-19.49-69.51,8.2-9.53,15.58-10.07,36.49-13.62,54.57,1.39,16.62,3.38,32.92,7.89,48.66,5.98,12.94,11.78,33.08,21.9,44.71,24.74,28.44,71.82,43.23,102.8,36.02l-.11.44c1.23-.16,2.47-.2,3.7-.09,3.71.32,7.57-.8,11.34-1.42,5.42-2.94,36.65-15.27,38.56-15.18,5.15.22,10.42,8.42,16.08,10.46,133.07,47.98,206.84-82.36,211.95-254.62.76-25.61-5.64-81.71-3.55-97.69,2.37-18.05,24.96-51.39,23.24-75.36,7.82-2.88,14.27,15.29,17.32,22.57,4.64,11.08,21.03,52.02,23.2,61.19,10.8,45.75-13.93,186.22-25.77,235.72-3.98,16.64-35.82,106.7-30.62,113.91,58.85-11.56,85.39-109.87,116.88-169.94,23.1,31.32,75.67,153.17,104,163.39,38.37,13.85.92-57.2-3.7-71.93-12.2-38.91-39.31-207.52-38.89-248.01.36-33.98,27.95-79.7,35.73-112.36,2.95-2.8,11.35,17.97,13.46,22.43,7.08,14.89,35.15,78.72,37.18,91.17,5.57,34.13-.07,88.95,5.17,130,18.64,146.03,75.86,237.89,190.66,204.64,11.38-3.3,22.25-14.84,32.74-15.02,14.46-.24,38.41,14.5,55.67,16.55,3.06.36,47.01,14.3,79.95-15.32,30.93-27.81,51.83-93.24,34.99-139.51-10.1-27.73-35.66-53.81-57.54-45.31ZM352.63,604.29c-15.22,27.45-57.82,69.59-83.39,66.24-.74-.1-1.46-.29-2.17-.52-8.64,2.04-17.48,1.89-26.61-.4-.71.14-1.45.23-2.24.23-6.34-.01-14.83-7.48-22.39-5.39l51.54-52c53.71-63.48,79.09-122.15,116.97-200.35,3.02-6.24-1.04-14.23,9.77-10.91-6.58,70.16-9.1,144.69-41.49,203.09ZM409.94,280.46c-10.53,1.44-6.37.15-7.8-8.18-8.4-48.8-12.71-97.9-27.81-145.36,8.53-2.73,9.02,5.98,12.57,12.71,13.42,25.42,24.89,53.29,37.02,79.9l-13.98,60.93ZM455.72,230.85c-9.93-33.52,14.69-60.01,13.75-93,4-2.35,7.88,12.79,7.88,13.69v123.44l-21.64-44.13ZM465.51,604.15l35.58-175.52c-.39,16,12.75,30.72,15,42.49,6.33,33.09-34.16,107.38-50.58,133.02ZM600.19,582.17c-10.57,3.06-6.83-3.75-9.84-10.8-7.91-18.5-37.22-70.84-37.81-85.66-.13-3.3,16.71-52.37,19.55-60.27,2.13-5.92-2.02-10.33,8.27-7.79l19.82,164.52ZM592.32,285.95l-2.02-164.64c22.8,60.54,45.54,108.96,2.02,164.64ZM687.35,296.9l-21.49-33.26-13.58-50.38c17.79-40.51,35.33-84.5,62.81-113.83l-27.74,197.48ZM871.66,680.96c-17.12,0-44.13,3.57-59.44,0-4.58-1.07-36.6-20.53-41.43-24.93-42.35-38.64-59.7-151.18-63.54-216.46,54.04,79.11,92.35,188.3,170.36,230.5,1.07,2.18-5.24,10.88-5.94,10.88Z"/></g></svg>