<?xml version="1.0" encoding="UTF-8"?><svg id="Layer_2" xmlns="http://www.w3.org/2000/svg" viewBox="0 0 975.04 710.62"><g id="image"><path d="M897.61,502.66c92.68-3.01,98.52-81.79,36.87-73.03l-19.04,17.74c77.34,23.82-47.9,52.94-66.68,20.73-5.23-85.02-53.03-196.86-37.09-279.41,10.35-53.56,140.74-122.06,14.96-157.42-76.79-7.45-86.99,65.16-94.16,99.35-8.43,40.19-23.86,76.99-43.65,112.52,26.06-29.54,53.14-58.72,78.11-88.66,15.86-19.02,34.28-38.92,45.29-59.36,2.97-5.51,6.51-12.41,3.49-18.27-1.33-2.59-5.06-4.39-8.58-6.02-1.11,1.88-2.24,3.68-2.89,4.99-4.75,9.59-52.13,20.21-45.34,6.51,1.55-3.12,3.12-6.18,4.83-9.16-.25-.88-.12-1.94.52-3.2,1.68-3.32,4.8-6.15,6.22-9.55.52-1.25,1.52-2.44,2.86-3.56-.02-.13-.06-.25-.07-.38-.85-6.6,16.5-12.67,24.18-14.41,9.77-2.21,20.18-3.6,30.33-1.6,7.79,1.53,14.2,4.33,20.75,7.33,2.81,1.29,3.43,2.9,2.89,4.56,7.25,4.5,12.08,10.48,12.41,17.39,1.09,23.05-28.23,49.73-44.24,69.39-10.27,12.6-20.98,25.05-31.88,37.43,8.42-1.11,14.88-.32,13.91,3.61-7.55,30.46,4.73,62.29,7.88,92.8,3.38,32.68,5.51,65.42,6.45,98.17.97,33.72-.1,67.43,4.02,101.09,1.91,15.58,5.44,31.34,4.66,46.99-.41,8.36-2.81,16.54-5.18,24.72l38.54,84.37-54.61-44.65c-1.28,3.43-2.54,6.86-3.94,10.26-7.84,19.09-22.88,34.57-33.97,52.59-5.77,9.37-53.37,19.55-45.34,6.51,3.19-5.18,6.84-10.13,10.56-15.03l-10.8-2.37-46.23,73.91c75.76-5.04,103.92-54.17,144.09-88.45,31.26,23.76,65.91,54.73,99.82,76.25,15.32,9.73,15.18,15.96,44.27,12.19-45.26-68.7-94.07-136.64-115.08-210.57,11.57-8.54,33.39,4.29,50.88,3.72Z"/><path d="M696.76,399.4l56.37,62.3c7.78,47.17,4.59,101.61-24.4,158-2.8,5.44-5.75,10.74-8.85,15.92,3.6.79,7.2,1.58,10.8,2.37,9.83-12.89,16.71-24.26,21.51-33.24,10.32-19.28,12.31-30.43,13.48-37.72.1-.63.16-1.15.16-1.5v-238.49c-1.1-15.39-2.42-30.79-3.94-46.17-2.11-21.3-8.86-42.96-9.74-64.47-.39.43-.78.87-1.17,1.31-47.23,52.78-88.76,107.35-130.42,161.99-20.01,26.24-38.43,53.08-56.25,79.96-7.81,11.78-14.73,23.32-27.1,33.49-5.46,4.49-11.51,8.65-17.61,12.79l-53.47,114.96c-11.08-34.77-22.17-69.53-33.25-104.3l-105.13-183.7,149.65,169.81,192.71-248.24L627.4.58c-19.26-2.37-24.22,2.7-31.8,12.8-29.03,38.67-49.35,96.35-81.42,139.88-14.89,20.22-30.29,48.51-59.56,61.45C399.97,145.18,366.14,62.13,293.04.54v228.95c-21.5-14.43-60.79-53.98-66.55-71.82-10.06-31.16,25.58-126.61-67.61-133.05-130.68-9.02-33.97,115.95-3.68,149.13-11.86,79.48,4.52,182.48-11.5,259.2-4.55,21.81-28.9,39.19-65.01,40.38-54.79,1.79-75.56-46.96-4.83-29.68l-6.15-10.31c-1.47-.38-2.78-.89-3.91-1.54-13.41-7.77-31.33-6.22-48.98-3.02-52.87,42.54,47.58,77.42,116.67,51.82l-28.18,125.89-75.43,103.02c74.06-7.21,111.48-48.24,155.77-81.14l87.2,69.54c12.96,7.33,40.24,16.31,45.28.42,3.81-12.02-47.85-61.91-55.03-82.79-6.69-19.45-34.07-166.13-28.92-176.97l49.23-53.95c-4.07,41.71-.05,184.25,77.43,198.17,22.34,4.02,49.82.97,49.69-17.25l-17.45-18.34-40.19,14.63c-40.95-69.81-46.19-147.44-46.19-221.55,24.08,8.17,33.92,33.99,43.25,49.77,26.15,44.24,65.45,109.58,82.79,153.77,9.62,24.52,29.95,165.23,52.56,165.58l29.32-12.19c6.51-31.14,3.1-104.64,28.29-128.05,16.86-15.66,28.82,10.36,48.68,13.81,100.26,17.42,113.97-144.68,107.2-183.58ZM235.27,650.42l-63.48-73.74c-.06,0-.11,0-.17,0-4.26,1.15-8.59,1.98-12.84,2.51-10.65,6.63-7.2,24.78-17.11,37.12-5.64,7.02-20.37,17.3-33.03,19.39,11.53-44.3,23.07-88.6,34.6-132.9.06.03.13.05.19.08,1.78-8.17,5.35-16.22,9.31-23.51.35-.64.92-1.29,1.62-1.93l.03-.34c2.65-48.49,8.57-96.92,8.04-145.51-.79-.64-1.21-1.47-.95-2.58,5.91-25.68,2.31-51.65,1.26-77.48-1.05-25.87-.88-51.62-.32-77.48,0-.11.08-.21.09-.32.47-24.67,3.75-49.01,5.61-73.64.75-9.94.66-20.47-4.93-29.88-2.85-4.8-7.07-9.25-13.33-12.57-1.99-.82-3.98-1.64-5.97-2.45-5.73-.55-8.85-1.33-9.63-2.32-15.78,6.17-44.55,9.22-32.25-3.39,4.84-4.97,11.23-8.87,18.43-11.8l-.33-.12.48.06c28.82-11.64,71.3-6.94,87.02,14.96,9.86,13.74,8.65,29.95,6.73,44.63-3.03,23.23-4.59,46.36-4.69,69.67,0,.1-.07.19-.08.29-.48,24.35-.59,48.62.4,72.99,1.01,24.71,4.25,49.54-.64,74.13.18.42.3.87.31,1.37,1.22,62.56-8.84,124.84-9.21,187.31.31.55.53,1.16.58,1.9.54,9.76,1.25,19.52,1.67,29.28l32.57,116.29ZM223.85,391.97v-147.71c78.89,39.92,57.32,103.53,0,147.71ZM489.22,233.86c6.4-40.62,102.04-111.79,109.35-159.43,33.16,8.85,23.27,172.27,38.16,201.35l-136.28,175.26c-47.5-.31-47.92-38.83-69.01-59l61.42,6.73c99.55-49.7-11.37-115.78-3.63-164.91ZM453.91,284.82c5.02-11.05-6.18-13.09,23.52-11.02,1.27,26.37,24.44,49.93,22.55,76.76-1.12,15.9-9.48,32.7-39.64,26.59-28.07-7.76-14.27-75.05-6.43-92.33ZM327.63,96.55c29.09,22.71,112.51,112.28,115.01,137.1,3.15,31.22-56.38,81.69-34.4,121.39-17.97-6.18-80.61-79.93-80.61-84.93V96.55ZM662.05,491.68c-8.59,45.11-43.64,95.97-115.67,51.03,22.41-47.99,45.1-97.08,75.46-143.24,8.17-12.41,21.9-38.49,40.21-44.42-5.89,43.43,8.06,94.27,0,136.63ZM754.3,244.26v177.25l-68.08-99.91,68.08-77.35Z"/></g></svg>