<?xml version="1.0" encoding="UTF-8"?><svg id="Layer_2" xmlns="http://www.w3.org/2000/svg" viewBox="0 0 1105.17 967.36"><g id="image"><path d="M1003.04,629.02c-9.17,7.84,41.54,34.18,46.65,39.53,50.44,52.78,27.49,134.02-36.79,167.52-12.1,6.31-25.7,9.98-33.37,11.9-35.38,8.85-65.11,5.11-77.99,2.89-26.52-4.58-46.62-13.94-59.27-21.11-10.51-5.28-21.01-10.56-31.52-15.84-5.84-7.92-11.68-15.84-17.52-23.77l49.51-50.11c19.12,14.34,38.54,40.97,61.66,49.66,93.64,35.19,170.46-49.54,67.79-98.41-9.39-4.47-19.69-5.51-27.88-6.85-21.66-3.54-39.18-2.39-49.64-1.64-7.97.57-18.81,1.74-31.54,4.32v-92.45c0-36.88,28.8-88.28,34.57-121.81,17.59-102.18-17.45-179.52-33.03-217.68-21.27-52.11-49.42-118.33-111.55-135.15-6.45-1.75-11.97-2.61-15.7-3.07-2.7-31.98-8.4-68.47-21.89-70.13-7.08-.87-13.93,8.13-15.61,10.34-16.65,21.88,5.37,46.84-8.31,65.05-7.49,9.97-19.51,8.41-36.29,14.56-20.68,7.58-48.16,23.18-74.83,58.94-5.83-7.49-49.07-35.21-23.39-36.84l17.56,15.71c11.99-6.96,17.34-20.67,26.54-28.74,6.66-5.84,22.14-6.1,23.42-11.32,4.54-18.57-16.98-25.84-24.18-41.31-8.2-17.6-13.83-54.81-17.51-93.21-4.55,1.9-9.3,3.17-13.3,3.46.54,22.79-.17,44.35-3.96,62.7-3.11,15.09-34.7,48.17-34.8,58.42-.12,12.21,20.22,15.5,17.55,28.95-12.93-10.59-35.03-25.76-66.48-34.85-15.59-4.51-29.81-6.46-41.49-7.21-5.95-102.29-55.63-92.52-38.03,1.84l-9.05,7.5c-8.05,3.99-19.36,10.26-31.43,19.52-33.04,25.35-46.52,58.15-68.93,106.46-24.49,52.81-37.27,108.97-42.02,173.31-4.64,62.96,25.11,101.32,34.77,159.11,2.42,14.5,9.3,95.71,3.73,102.92-15.86,12.53-35.86.2-52.88-.27-8.61-.24-106.16,10.4-112.57,46.13-3.38,18.85,20.19,36.16,23.79,38.81,34.86,25.6,87.93,12.95,117.04-1.31,16.45-8.06,27.92-17.94,35.09-25.16,46.8,38,55.34,58.5-8.03,81.39-47.37,17.11-114.54,22.94-163.18,10.75-56.27-14.11-104.89-59.58-97.47-114.92,2.08-15.46,14.38-49.83,24.97-61.93,18.8-21.48,58.25-22.74,66.76-47.72-90.05.43-144.79,96.69-114.77,170.08,42.93,104.98,217.32,106.15,312.28,64.39,16.72-7.35,34.14-30.78,32.85-2.08-1.27,28.3-4.6,59.45-16.21,85.84-1.32,3-34.12,45.24-18.94,40.94,53.49-29.78,67.28-86.57,67.02-139.91-.23-48.34,1.33-26.96,18.62-67.72,54.72-128.96,33.11-327.06,33.32-466.46.03-22.58-10.71-51.12-5.26-75.99,16.97-2.6,9.49,3.58,12.36,12.26,8.34,25.19,66.93,190.73,102.91,250.33,2.17,3.6,8.43,13.8,12.84,28.5,3.14,10.47,4.36,19.94,4.8,29.05,1.9,39.33-9.16,104.55-29.13,156.93-4.62,12.12-7.12,18.64-12,27.76-8.84,16.5-13.89,21.35-21.27,37.16-2.47,5.3-14.97,35.08,2.23,28.47l61.21-52.78c3.74,21.86-23.51,23.67-23.73,44.78-.24,22.56,32.96,39.47,23.66,66.01.79,21.17,1.6,42.34,2.42,63.51.11,2.84.23,5.68.34,8.53,3.02-1.67,6.16-3,8.83-3.96,2.33-.84,8.02-2.16,12.68-1.92,1.38-47.45,4.54-92.64,11.54-104.98,5.05-8.89,16.9-13.54,21.99-22.52l-40.2-54.68,59.9,43.37,39.14,4.09c-7.38-23.18-34.12-33.53-46.88-55.17-24.88-42.19-45.23-158.93-40.7-206.51,4.11-43.17,57.98-145.37,76.07-195.13,10.56-29.06,19.43-78.85,31.88-103.17,13.32-26.02,2.79,41.81,2.7,44.71-1.21,36.94,5.25,71.87,5.91,106.01,2.03,104.42-10.98,231.96.26,332.64,4.29,38.44,35.69,69.81,40.62,95.48,5.63,29.35-1.69,42.97-.58,65.96,1.79,37,11.58,49.68,14.41,53.86,14.83,21.9,38.32,31.64,50.35,35.66l-11.81-23.73c-4.81-7.61-9.65-16.71-13.69-27.27-9.94-26-10.57-49.37-9.38-65.19,83,46.87,175.92,70.53,261.66,12.74,93.52-63.03,81.8-197.79-40.24-218.74ZM873.27,721.59c1.91-4.58,9.34-5.89,22.45-7.55,39.32-4.97,67.09-3.01,88.84,29.28.29,4.73-.76,8.65-2.81,11.85-9.97,15.6-49.88,11.72-76.14-.99-16.92-8.19-35.99-23.84-32.34-32.6ZM207.63,756.24c-54.1,3.17-78.63-40.96,7.59-46.54,23.99-1.55,37.13-1.75,53.42,17.03.02,5.28-51.2,28.94-61.01,29.51ZM383.71,527.42c29.33,76.4,18.72,161.64-18.78,233.61l-49.07-60.31c17.17-64.19,9.96-130.52,10.9-196.09.13-9.31,4.87-17.97,4.95-26.18.76-83.34-19.6-198.52,15.75-277.32,9.35-20.85,26.26-50.29,55.29-47.56-6.37,49.17,0,100.82-6.47,149.92-.23,1.77-3.66,11.78-6.62,25.74-3.01,14.21-4.21,24.76-4.54,27.44-4.94,39.42-34.61,73.72-34.55,112.02.02,11.43,26.26,40.78,33.14,58.72ZM522.37,333.06l-66.97-177.1c-.35-2.72.16-4.42,1.33-5.3,6.33-4.75,35.27,15.8,51.01,31.89,16.03,16.39,30.82,40.92,48.81,180.23,1.57,12.14,2.76,22.09,3.52,28.47l-37.7-58.19ZM646.92,282.58c-3.12,6.84-6.97,14.78-13.33,29.43-9.92,22.87-18.35,46.33-29.93,68.55-3.26,6.25-5.22,14.63-14.34,16,2.62-57.54,3.07-110.62,24.63-165.15,15.73-39.8,34.54-71.4,80.18-88.38-20.32,73.7-36.03,115-47.21,139.55ZM772.89,761.02c-39.38-60.46-35.72-140.15-18.88-207.18,7.13-28.39,27.1-55.88,28.03-85.95.83-26.99-22.25-71.13-28.14-101.72-7.58-39.42-6.31-79.26-8.94-118.66-2.39-35.87-14.37-67.8-4.17-104.54,74.65,12.33,84.15,98.59,87.63,155.65,2.92,47.86,9.52,91.14,6.04,179.74-1.46,37.13-3.92,67.98-5.95,89.59l2.73,140.31c-9.66,9.31-22.73,14.13-32.44,23.51-8.06,7.77-17.85,32.6-25.9,29.25Z"/></g></svg>