<?xml version="1.0" encoding="UTF-8"?><svg id="Layer_2" xmlns="http://www.w3.org/2000/svg" viewBox="0 0 1000.26 810.37"><g id="image"><path d="M750.91,643.36c-1.19,4.38-12.35,31.61-34.66,86.07-3.14,7.67-9.47,22.65-25.14,37.35-12.39,11.63-32.3,24.66-37.58,21.38-9.8-6.09,35.01-66.07,39.78-75.32,102.32-198.54,31.56-418.52-43.58-614.5l-25.84-47.86-39.36,116.12c23.67,60.92,78.3,135.99,89.88,198.19,9.91,53.22-61.85,235.22-87.22,293.69-12.76,29.41-47.61,111.23-65.59,133.12-5.96,7.26-14.14,13.68-22.78,18.79-9.49-7.43-23-18.91-36.95-34.45,0,0-13.02-13.6-23.08-29.61-57.28-91.22-119.05-224.11-138.07-325.62-16.26-86.77,47.98-145.41,75.01-224.15,14.46-42.13-6.14-50.64-24.52-85.41-7.47-14.13-9.32-30.88-20.61-44.96-3.59-4.48.74-8.64-12.87-6.18-16.91,51.83-43.66,101.12-60.79,152.95-54.6,165.2-57.65,340.24,36.51,495.88,8.73,14.43,75.67,87.78,64.62,97.08-24.49,3.27-48.97-21.63-63.38-35.94-61.83-61.43-89.3-154.19-104.16-231.78l-21.43,113.68c-11.3,32.3-50.19,84.09-92.5,90.74-28.06,4.41-55.66,1.97-71.14-20.09-23.28-33.19,33.81-67.67,58.5-38.87,8.39,9.79.41,31.4,13.92,26.61,53.81-32.14,65.52-89.29,72.19-141.09,8.04-62.42-5.38-136.02,7.58-194.56,11.54-52.14,44.55-132.67,65.83-184.58,25.38-61.93,56.3-122.85,88.72-182.4,6.03-1.08,11.76-.6,17.2,2.03,28.07,13.53,51.82,96.66,72.01,122.05,26.68-42.77,35.38-93.34,72.19-131.71h17.41l72.16,122.21L621.91,3.32c20.25-7.56,32.29,19.12,39.39,32.84,39.37,76.11,110.57,219.4,133.11,296.25,34.7,118.33,17.84,270.32,126.93,363.53,7.71-30.8,24.6-35.92,60.89-35.82,49.87,44.08-13.76,88.92-68.97,66.38-57.86-23.62-80.29-85.26-101.71-130.95l-31.76-124.33c-2.6,30.67-9.81,102.18-28.88,172.14ZM479.48,313.43c8.1-.61,9.22-6.86,11.75-11.75,5.57-10.75,46.45-122.52,46.49-129.26.25-36.24-41.15-87.07-55.41-121.88l-61.15,126.69,58.32,136.2ZM491.03,762.89c8.22-.55,9.07-7.04,11.71-11.77,66.32-118.67,108.36-286.4,85.65-415.53-6.32-35.95-19.74-72.5-28.17-108.2l-34.5,117.19-16.99,282.38-20.05,1.64-8.38-7.49-12.89-190.16-57.37-198.81c-11.6,1.84-9.44,10.1-11.48,16.73-37.39,121.48-34.69,247.47,13.03,366.96,20.34,50.92,59.11,97.2,79.45,147.06Z"/></g></svg>